<!--?xml version="1.0" standalone="no"?-->
              <svg id="sw-js-blob-svg" viewBox="0 0 100 100" xmlns="http://www.w3.org/2000/svg" version="1.1">
                    <defs> 
                        <linearGradient id="sw-gradient" x1="0" x2="1" y1="1" y2="0">
                            <stop id="stop1" stop-color="rgba(248.995, 156.908, 60.456, 1)" offset="0%"></stop>
                            <stop id="stop2" stop-color="rgba(255, 211.404, 21.742, 1)" offset="100%"></stop>
                        </linearGradient>
                    </defs>
                <path fill="url(#sw-gradient)" d="M15.4,-20.4C19.1,-15.2,20.9,-9.6,22.6,-3.4C24.3,2.7,26.1,9.4,24.2,15.2C22.3,21.1,16.8,26.1,10.7,27.4C4.6,28.8,-2.1,26.5,-10.3,24.9C-18.4,23.4,-28.1,22.6,-33.2,17.4C-38.3,12.2,-38.9,2.6,-35.5,-4.4C-32.1,-11.5,-24.7,-16,-18.1,-20.8C-11.5,-25.5,-5.8,-30.5,0,-30.5C5.8,-30.5,11.6,-25.6,15.4,-20.4Z" width="100%" height="100%" transform="translate(50 50)" stroke-width="0" style="transition: all 0.3s ease 0s;" stroke="url(#sw-gradient)"></path>
              </svg>